<svg xmlns="http://www.w3.org/2000/svg" width="23" height="40.111" viewBox="0 0 23 40.111">
  <path id="_053830adc83ee2f0a7527f9408a1e7c7" data-name="053830adc83ee2f0a7527f9408a1e7c7" d="M13.444,18.333H8.556a6.111,6.111,0,1,1,0-12.222h7.333a3.671,3.671,0,0,1,3.667,3.667H22a6.12,6.12,0,0,0-6.111-6.111H12.222V0H9.778V3.667H8.556a8.556,8.556,0,1,0,0,17.111h4.889a6.111,6.111,0,1,1,0,12.222H6.111a3.671,3.671,0,0,1-3.667-3.667H0a6.12,6.12,0,0,0,6.111,6.111H9.778v3.667h2.444V35.444h1.222a8.556,8.556,0,0,0,0-17.111Z" transform="translate(0.5 0.5)" fill="#0069ff" stroke="#0069ff" stroke-width="1"/>
</svg>
