<svg xmlns="http://www.w3.org/2000/svg" width="78.338" height="10.956" viewBox="0 0 78.338 10.956">
  <g id="_1123f3fe5f31df805367344ffc1c2758" data-name="1123f3fe5f31df805367344ffc1c2758" transform="translate(-0.665 -0.424)">
    <path id="Path_14139" data-name="Path 14139" d="M40.038,3.923a3.627,3.627,0,0,1,.894-2.26V.882h-.685a3.5,3.5,0,0,0-3.24,1.731h-.04v-1.6H33.412v9.749h3.554V6.827c0-1.671.489-2.944,2.461-2.944a4.827,4.827,0,0,1,.61.04Zm26.91-.036a5.79,5.79,0,0,1,1.4-2.245V.881h-.684a3.5,3.5,0,0,0-3.243,1.73h-.038v-1.6H60.822v9.749h3.556V6.827c0-1.671.49-2.944,2.463-2.944ZM47.255,3.522a4.532,4.532,0,0,0-1.918-.475c-.408,0-1.112.17-1.112.665,0,.666,1.112.76,1.6.857,1.657.322,2.91,1.083,2.91,2.886,0,2.565-2.4,3.633-4.729,3.633a7.931,7.931,0,0,1-4.043-1.122l1.289-2.415a5.791,5.791,0,0,0,2.812.989c.45,0,1.113-.208,1.113-.74,0-.76-1.113-.8-2.228-1.085a2.462,2.462,0,0,1-2.224-2.565c0-2.4,2.224-3.458,4.416-3.458a8.139,8.139,0,0,1,3.3.627l-1.189,2.2ZM79,10.763H75.448V9.679h-.039a3.559,3.559,0,0,1-3.028,1.406,5.074,5.074,0,0,1-5.059-5.208A5.027,5.027,0,0,1,72.341.689a4.148,4.148,0,0,1,3.107,1.272V1.014H79l0,9.749ZM70.994,5.9a2.286,2.286,0,0,0,4.567,0,2.285,2.285,0,0,0-4.567,0Zm-10.732.572H52.778a1.966,1.966,0,0,0,2.228,2.164,1.789,1.789,0,0,0,1.7-.893h3.419c-.567,2.3-2.814,3.345-5.1,3.345-3.319,0-5.8-1.826-5.8-5.188,0-3.25,2.283-5.206,5.545-5.206,3.477,0,5.491,2.091,5.491,5.415l0,.362Zm-3.3-2a2.149,2.149,0,0,0-4.122,0ZM22.107,5.728q-.006-.125-.016-.25v0a5.359,5.359,0,0,0-.886-2.515,5.5,5.5,0,0,0-.775-.928,5.611,5.611,0,0,0-1.465-1.01,6.273,6.273,0,0,0-2.727-.6c-.1,0-.2,0-.3.005a6.582,6.582,0,0,0-1.978.392,5.654,5.654,0,0,0-1.629.89c-.091.073-.191.162-.3.26l-.077.075-.105.112h0l-.049.049-.024.026-.125.132q-.136.153-.264.311v0l0,0a5.406,5.406,0,0,0-.447.619q-.119.188-.231.382L9.688,5.745h0l-.054.105-.113.229a9.27,9.27,0,0,1-.735,1.282,2.749,2.749,0,0,1-2.15.98c-.061,0-.123,0-.187-.007a2.856,2.856,0,0,1-1.375-.382q-.063-.037-.124-.078a2.3,2.3,0,0,1-.764-.843A2.376,2.376,0,0,1,3.9,5.811c0-.012,0-.022,0-.031a2.209,2.209,0,0,1,.809-1.663,2.8,2.8,0,0,1,.4-.285L5.164,3.8A2.733,2.733,0,0,1,6.5,3.483l.157,0a2.726,2.726,0,0,1,1.916.771l1.549-2.782A6.11,6.11,0,0,0,8.87.842L8.816.822C8.761.8,8.707.782,8.65.764A6.633,6.633,0,0,0,7.116.454L7.076.449C6.994.443,6.912.433,6.831.43S6.654.425,6.566.424h-.05a6.264,6.264,0,0,0-2.707.6A5.518,5.518,0,0,0,1.573,2.958a5.368,5.368,0,0,0-.9,2.768q-.006.127-.006.254A5.062,5.062,0,0,0,2.186,9.637a5.844,5.844,0,0,0,4.082,1.734c.106,0,.21.007.315.007a6.484,6.484,0,0,0,2.572-.5,5.914,5.914,0,0,0,.574-.288c.1-.06.2-.124.3-.192l.073-.049.122-.083a4.687,4.687,0,0,0,.417-.34l.046-.044q.118-.111.231-.228l.278-.314.106-.133.049-.072.049-.071c.413-.693,1.756-3.217,1.756-3.217V5.844l.08-.154.067-.12a8.973,8.973,0,0,1,.53-.886l.005-.008a2.827,2.827,0,0,1,2.1-1.174,2.612,2.612,0,0,1,2.938,2.2,2.59,2.59,0,0,1-2.5,2.672,3,3,0,0,1-.9-.057l-.007,0a4.193,4.193,0,0,1-2.149-1.392L11.867,9.589a8.591,8.591,0,0,0,.757.679,5.751,5.751,0,0,0,1.024.585,6.378,6.378,0,0,0,2.536.527c.107,0,.086,0,.2,0a6.129,6.129,0,0,0,4.178-1.783A5.01,5.01,0,0,0,22.113,6V5.96q0-.116-.006-.233Zm5.527,5.365a7.421,7.421,0,0,1-2.039-.261,4.007,4.007,0,0,1-1.562-.826,3.718,3.718,0,0,1-1-1.44,5.622,5.622,0,0,1-.353-2.1V1.012h3.429V6.419a1.767,1.767,0,0,0,.439,1.334,1.558,1.558,0,0,0,1.116.416,1.62,1.62,0,0,0,1.124-.388,1.667,1.667,0,0,0,.432-1.292V1.011h3.429V6.391a5.755,5.755,0,0,1-.36,2.16,3.739,3.739,0,0,1-1.015,1.455,4.087,4.087,0,0,1-1.586.826,7.611,7.611,0,0,1-2.053.26Z" transform="translate(0 0)" fill="#0053cb"/>
  </g>
</svg>
