<svg xmlns="http://www.w3.org/2000/svg" width="64.723" height="64.851" viewBox="0 0 64.723 64.851">
  <g id="_82a406b2e75862562666579b3e855d31" data-name="82a406b2e75862562666579b3e855d31" transform="translate(0 -0.148)">
    <path id="Path_14109" data-name="Path 14109" d="M23.731.148a6.485,6.485,0,0,0,0,12.97H30.2V6.633A6.479,6.479,0,0,0,23.731.148m0,17.293H6.472a6.485,6.485,0,0,0,0,12.971H23.732a6.485,6.485,0,0,0,0-12.971" transform="translate(0)" fill="#36c5f0"/>
    <path id="Path_14110" data-name="Path 14110" d="M62.062,23.927a6.472,6.472,0,1,0-12.945,0v6.485h6.472a6.479,6.479,0,0,0,6.473-6.485m-17.259,0V6.633a6.472,6.472,0,1,0-12.945,0V23.926a6.472,6.472,0,1,0,12.945,0" transform="translate(2.661)" fill="#2eb67d"/>
    <path id="Path_14111" data-name="Path 14111" d="M38.33,62.333a6.485,6.485,0,0,0,0-12.97H31.858v6.485a6.479,6.479,0,0,0,6.472,6.485m0-17.293H55.59a6.485,6.485,0,0,0,0-12.971H38.33a6.485,6.485,0,0,0,0,12.97" transform="translate(2.661 2.666)" fill="#ecb22e"/>
    <path id="Path_14112" data-name="Path 14112" d="M0,38.554a6.472,6.472,0,1,0,12.945,0V32.069H6.472A6.479,6.479,0,0,0,0,38.554m17.259,0V55.847a6.472,6.472,0,1,0,12.945,0V38.554a6.472,6.472,0,1,0-12.945,0" transform="translate(0 2.666)" fill="#e01e5a"/>
  </g>
</svg>
