<svg id="blogger" xmlns="http://www.w3.org/2000/svg" width="13.682" height="13.807" viewBox="0 0 13.682 13.807">
  <path id="Path_14125" data-name="Path 14125" d="M7.6,0,3.445.018a3.589,3.589,0,0,0-3.4,3.19,2.39,2.39,0,0,0-.027.5C0,4.523.006,5.4.019,6.233c0,1.32-.036,2.383-.011,3.364.016,2.883,1.718,4.23,4.809,4.174.766-.014,1.641-.019,2.645.007a18.526,18.526,0,0,0,2.455-.025,4,4,0,0,0,3.764-4.131V7.728A2.479,2.479,0,0,0,11,5.234a5.36,5.36,0,0,0,.047-2.016A3.473,3.473,0,0,0,7.6,0ZM4.126,2.585H7.5c1.868.249,1.78,2.263,0,2.552H4.126c-1.868-.249-1.78-2.263,0-2.552ZM3.358,8.16l6.208.021a1.4,1.4,0,0,1,.065,2.807l-6.208-.022A1.4,1.4,0,1,1,3.358,8.16Z" transform="translate(0 0)" fill="#0069ff"/>
</svg>
