<svg id="blogger" xmlns="http://www.w3.org/2000/svg" width="11.815" height="11.923" viewBox="0 0 11.815 11.923">
  <path id="Path_14125" data-name="Path 14125" d="M6.562,0,2.975.015A3.1,3.1,0,0,0,.042,2.77,2.064,2.064,0,0,0,.018,3.2C0,3.906.005,4.66.016,5.382c0,1.14-.031,2.058-.009,2.905.014,2.49,1.484,3.653,4.153,3.6.661-.012,1.417-.016,2.284.006a16,16,0,0,0,2.12-.022,3.453,3.453,0,0,0,3.251-3.568V6.673A2.141,2.141,0,0,0,9.5,4.52a4.629,4.629,0,0,0,.04-1.741A3,3,0,0,0,6.562,0Zm-3,2.233H6.481c1.613.215,1.537,1.955,0,2.2H3.563c-1.613-.215-1.537-1.955,0-2.2ZM2.9,7.047l5.361.018a1.213,1.213,0,0,1,.056,2.424L2.956,9.471A1.212,1.212,0,1,1,2.9,7.047Z" transform="translate(0 0)" fill="#0069ff"/>
</svg>
