<svg xmlns="http://www.w3.org/2000/svg" width="24.667" height="21.303" viewBox="0 0 24.667 21.303">
  <g id="briefcase" transform="translate(-2 -4)">
    <g id="Group_16665" data-name="Group 16665" transform="translate(2 4)">
      <path id="Path_14129" data-name="Path 14129" d="M24.485,22H20v2.242h4.485Z" transform="translate(-9.909 -11.909)" fill="#fff"/>
      <path id="Path_14130" data-name="Path 14130" d="M8.727,7.364V6.242A2.242,2.242,0,0,1,10.97,4H17.7a2.242,2.242,0,0,1,2.242,2.242V7.364H23.3a3.364,3.364,0,0,1,3.364,3.364V21.939A3.364,3.364,0,0,1,23.3,25.3H5.364A3.364,3.364,0,0,1,2,21.939V10.727A3.364,3.364,0,0,1,5.364,7.364ZM10.97,6.242H17.7V7.364H10.97ZM5.364,9.606a1.121,1.121,0,0,0-1.121,1.121v6.727H24.424V10.727A1.121,1.121,0,0,0,23.3,9.606ZM4.242,21.939V19.7H24.424v2.242A1.121,1.121,0,0,1,23.3,23.061H5.364A1.121,1.121,0,0,1,4.242,21.939Z" transform="translate(-2 -4)" fill="#fff" fill-rule="evenodd"/>
    </g>
  </g>
</svg>
