<svg xmlns="http://www.w3.org/2000/svg" width="33.5" height="37.25" viewBox="0 0 33.5 37.25">
  <g id="calendar-user_broken" transform="translate(-6.25 -4.25)">
    <path id="Path_14165" data-name="Path 14165" d="M38,39.75V37.875a3.75,3.75,0,0,0-3.75-3.75h-7.5A3.75,3.75,0,0,0,23,37.875V39.75M17.375,21H8M28.625,9.75H34.25A3.75,3.75,0,0,1,38,13.5v3.75M11.75,9.75A3.75,3.75,0,0,0,8,13.5V36a3.75,3.75,0,0,0,3.75,3.75h5.625M28.625,6v7.5M17.375,6v7.5m0-3.75H23m11.25,15A3.75,3.75,0,1,1,30.5,21,3.75,3.75,0,0,1,34.25,24.75Z" transform="translate(0 0)" fill="none" stroke="#0069ff" stroke-linecap="round" stroke-width="3.5"/>
  </g>
</svg>
