<svg xmlns="http://www.w3.org/2000/svg" width="41.922" height="32.521" viewBox="0 0 41.922 32.521">
  <g id="check-lg" transform="translate(-25.792 -32.751)">
    <g id="Group_16740" data-name="Group 16740" transform="translate(27.005 33.751)">
      <g id="Group_16739" data-name="Group 16739" transform="translate(0 0)">
        <path id="Path_14159" data-name="Path 14159" d="M61.964,34.54a2.632,2.632,0,0,1,3.76,0,2.713,2.713,0,0,1,.036,3.771l-21.233,25.1a2.632,2.632,0,0,1-3.824.072L27.782,50.391a2.718,2.718,0,0,1,0-3.806,2.632,2.632,0,0,1,3.76,0L42.5,57.691,61.893,34.619a.887.887,0,0,1,.072-.079Z" transform="translate(-27.005 -33.751)" fill="#fff" stroke="#fff" stroke-width="2"/>
      </g>
    </g>
  </g>
</svg>
