<svg xmlns="http://www.w3.org/2000/svg" width="35.75" height="35.75" viewBox="0 0 35.75 35.75">
  <g id="clock" transform="translate(-3.5 -3.5)">
    <path id="Path_14166" data-name="Path 14166" d="M21.375,38.75A17.375,17.375,0,1,1,38.75,21.375,17.375,17.375,0,0,1,21.375,38.75Zm13.9-17.375a13.9,13.9,0,1,0-13.9,13.9A13.9,13.9,0,0,0,35.275,21.375Zm-6.95-1.737a1.738,1.738,0,0,1,0,3.475H23.112a3.485,3.485,0,0,1-3.475-3.475v-6.95a1.738,1.738,0,1,1,3.475,0v6.95Z" fill="#0069ff" stroke="#0069ff" stroke-width="1" fill-rule="evenodd"/>
  </g>
</svg>
