<svg id="d56a83daff855ba754852b04aa0f3926" xmlns="http://www.w3.org/2000/svg" width="46.942" height="47.9" viewBox="0 0 46.942 47.9">
  <path id="Path_14135" data-name="Path 14135" d="M153.542,111.657a20.523,20.523,0,0,0-.506-4.9H130.55v8.888h13.2a11.7,11.7,0,0,1-4.9,7.77l-.045.3,7.11,5.508.493.049c4.524-4.178,7.132-10.325,7.132-17.617" transform="translate(-106.6 -87.175)" fill="#4285f4"/>
  <path id="Path_14136" data-name="Path 14136" d="M35.321,175.583a22.828,22.828,0,0,0,15.86-5.8l-7.558-5.855a14.175,14.175,0,0,1-8.3,2.4A14.418,14.418,0,0,1,21.7,156.37l-.281.024-7.393,5.721-.1.269a23.933,23.933,0,0,0,21.4,13.2" transform="translate(-11.37 -127.683)" fill="#34a853"/>
  <path id="Path_14137" data-name="Path 14137" d="M10.325,86.916a14.744,14.744,0,0,1-.8-4.737,15.494,15.494,0,0,1,.772-4.737l-.013-.317L2.8,71.312l-.245.116a23.9,23.9,0,0,0,0,21.5l7.77-6.014" transform="translate(0 -58.229)" fill="#fbbc05"/>
  <path id="Path_14138" data-name="Path 14138" d="M35.321,9.261a13.274,13.274,0,0,1,9.261,3.566l6.759-6.6A23.011,23.011,0,0,0,35.321,0a23.933,23.933,0,0,0-21.4,13.2l7.744,6.014A14.477,14.477,0,0,1,35.321,9.261" transform="translate(-11.37)" fill="#eb4335"/>
</svg>
