<svg id="dollar" xmlns="http://www.w3.org/2000/svg" width="25.325" height="33.767" viewBox="0 0 25.325 33.767">
  <path id="Path_14167" data-name="Path 14167" d="M23.2,12.662a2.083,2.083,0,0,1-2.094-2.11,2.755,2.755,0,0,0-1.237-2.11,9.053,9.053,0,0,0-3.182-1.55,14.716,14.716,0,0,0-8.046,0,9.053,9.053,0,0,0-3.182,1.55,2.755,2.755,0,0,0-1.237,2.11,2.755,2.755,0,0,0,1.237,2.11,9.053,9.053,0,0,0,3.182,1.55,14.457,14.457,0,0,0,4.023.561,17.327,17.327,0,0,1,6.348,1.138,11.647,11.647,0,0,1,4.617,3.067,6.276,6.276,0,0,1,1.7,4.237,6.833,6.833,0,0,1-3.017,5.457,14.53,14.53,0,0,1-7.535,2.852v.132a2.012,2.012,0,0,1-.627,1.5,2.075,2.075,0,0,1-1.5.61,2.083,2.083,0,0,1-2.094-2.11v-.132a14.53,14.53,0,0,1-7.535-2.852A6.833,6.833,0,0,1,0,23.215a2.055,2.055,0,0,1,.61-1.484A1.993,1.993,0,0,1,2.094,21.1a2.047,2.047,0,0,1,1.5.627,2.028,2.028,0,0,1,.627,1.484,2.755,2.755,0,0,0,1.237,2.11,9.053,9.053,0,0,0,3.182,1.55,14.716,14.716,0,0,0,8.046,0,9.053,9.053,0,0,0,3.182-1.55,2.755,2.755,0,0,0,1.237-2.11,2.755,2.755,0,0,0-1.237-2.11,9.053,9.053,0,0,0-3.182-1.55,14.457,14.457,0,0,0-4.023-.561,17.554,17.554,0,0,1-6.348-1.121A11.421,11.421,0,0,1,1.7,14.806,6.336,6.336,0,0,1,0,10.552,6.833,6.833,0,0,1,3.017,5.095a14.53,14.53,0,0,1,7.535-2.852V2.11a2.055,2.055,0,0,1,.61-1.484A1.993,1.993,0,0,1,12.646,0a2.047,2.047,0,0,1,1.5.627,2.028,2.028,0,0,1,.627,1.484v.132a14.53,14.53,0,0,1,7.535,2.852,6.833,6.833,0,0,1,3.017,5.457,2.012,2.012,0,0,1-.627,1.5A2.075,2.075,0,0,1,23.2,12.662Z" fill="#0069ff"/>
</svg>
