<svg xmlns="http://www.w3.org/2000/svg" xmlns:xlink="http://www.w3.org/1999/xlink" width="45.001" height="42.324" viewBox="0 0 45.001 42.324">
  <defs>
    <linearGradient id="linear-gradient" x1="-0.87" y1="0.401" x2="1.696" y2="0.401" gradientUnits="objectBoundingBox">
      <stop offset="0" stop-color="#0069ff"/>
      <stop offset="1" stop-color="#7c3aed"/>
    </linearGradient>
  </defs>
  <path id="Union_7" data-name="Union 7" d="M9576.474-7486.973a6.194,6.194,0,0,1,.341-8.39l3.631-3.63a0,0,0,0,1,0,0l3.809-3.809a0,0,0,0,0,0,0l6.451-6.452-1.46-1.46a.721.721,0,0,1,.511-1.23h6.943a.721.721,0,0,1,.721.721v6.944a.721.721,0,0,1-1.23.509l-1.461-1.458-7.711,7.712a9.965,9.965,0,0,0,7.07,2.929,10,10,0,0,0,9.98-10.625,10.051,10.051,0,0,0-9.614-9.367,9.993,9.993,0,0,0-8.606,4.331,2.333,2.333,0,0,1-1.929.994,2.37,2.37,0,0,1-1.981-3.686,14.728,14.728,0,0,1,12.15-6.39q.505,0,1.018.034a14.794,14.794,0,0,1,13.689,13.662,14.743,14.743,0,0,1-14.707,15.791,14.7,14.7,0,0,1-10.424-4.318l-3.463,3.463a19.638,19.638,0,0,0,27.774,0,19.643,19.643,0,0,0,1.576-26,2.655,2.655,0,0,1,.178-3.528,2.628,2.628,0,0,1,1.832-.772h.063a2.627,2.627,0,0,1,2.041,1,24.833,24.833,0,0,1,5.335,15.329v.16a24.836,24.836,0,0,1-7.3,17.535,24.828,24.828,0,0,1-17.615,7.3A24.829,24.829,0,0,1,9576.474-7486.973Z" transform="translate(-9574.499 7521.5)" stroke="rgba(0,0,0,0)" stroke-width="1" fill="url(#linear-gradient)"/>
</svg>
