<svg id="github" xmlns="http://www.w3.org/2000/svg" width="13.25" height="12.923" viewBox="0 0 13.25 12.923">
  <g id="Group_16615" data-name="Group 16615" transform="translate(0 0)">
    <path id="Path_14124" data-name="Path 14124" d="M6.625,0a6.625,6.625,0,0,0-2.1,12.91c.331.058.455-.141.455-.315,0-.157-.008-.679-.008-1.234-1.665.306-2.1-.406-2.228-.778a2.409,2.409,0,0,0-.679-.936c-.232-.124-.563-.431-.008-.439a1.326,1.326,0,0,1,1.019.679,1.416,1.416,0,0,0,1.93.547,1.394,1.394,0,0,1,.422-.886c-1.474-.166-3.014-.737-3.014-3.271A2.578,2.578,0,0,1,3.1,4.5a2.381,2.381,0,0,1,.066-1.756s.555-.174,1.822.679a6.246,6.246,0,0,1,3.313,0c1.267-.861,1.822-.679,1.822-.679A2.381,2.381,0,0,1,10.186,4.5a2.563,2.563,0,0,1,.679,1.78c0,2.542-1.549,3.105-3.023,3.271a1.569,1.569,0,0,1,.447,1.226c0,.886-.008,1.6-.008,1.822,0,.174.124.381.455.315A6.629,6.629,0,0,0,6.625,0Z" transform="translate(0 0)" fill="#0069ff"/>
  </g>
</svg>
