<svg id="github" xmlns="http://www.w3.org/2000/svg" width="15.344" height="14.965" viewBox="0 0 15.344 14.965">
  <g id="Group_16615" data-name="Group 16615">
    <path id="Path_14124" data-name="Path 14124" d="M7.672,0A7.672,7.672,0,0,0,5.246,14.95c.384.067.527-.163.527-.364,0-.182-.01-.786-.01-1.429-1.928.355-2.426-.47-2.58-.9A2.79,2.79,0,0,0,2.4,11.172c-.269-.144-.652-.5-.01-.508a1.535,1.535,0,0,1,1.18.786,1.64,1.64,0,0,0,2.234.633,1.614,1.614,0,0,1,.489-1.026C4.584,10.865,2.8,10.2,2.8,7.269a2.986,2.986,0,0,1,.786-2.062,2.757,2.757,0,0,1,.077-2.033s.643-.2,2.11.786a7.233,7.233,0,0,1,3.836,0c1.467-1,2.11-.786,2.11-.786A2.757,2.757,0,0,1,11.8,5.207a2.968,2.968,0,0,1,.786,2.062c0,2.944-1.793,3.6-3.5,3.788A1.817,1.817,0,0,1,9.6,12.476c0,1.026-.01,1.851-.01,2.11,0,.2.144.441.527.364A7.676,7.676,0,0,0,7.672,0Z" transform="translate(0 0)" fill="#0069ff"/>
  </g>
</svg>
