<svg xmlns="http://www.w3.org/2000/svg" width="36.689" height="36.689" viewBox="0 0 36.689 36.689">
  <g id="globe2" transform="translate(0.5 0.5)">
    <g id="Group_16605" data-name="Group 16605">
      <path id="Path_14121" data-name="Path 14121" d="M0,17.845A17.845,17.845,0,1,1,17.845,35.689,17.845,17.845,0,0,1,0,17.845ZM16.729,2.4c-1.494.455-2.978,1.829-4.209,4.138a17.034,17.034,0,0,0-.881,1.945,28.309,28.309,0,0,0,5.09.64V2.4ZM9.478,7.894a19.81,19.81,0,0,1,1.073-2.4,14.945,14.945,0,0,1,1.332-2.081A15.636,15.636,0,0,0,6.806,6.8,18.483,18.483,0,0,0,9.478,7.9ZM7.827,16.729A29.784,29.784,0,0,1,8.8,10.02,20.352,20.352,0,0,1,5.309,8.532a15.534,15.534,0,0,0-3.038,8.2H7.825Zm3.123-6.114a27.535,27.535,0,0,0-.892,6.114h6.672V11.356a30.13,30.13,0,0,1-5.779-.741Zm8.01.738v5.376h6.669a27.53,27.53,0,0,0-.89-6.114,30.307,30.307,0,0,1-5.779.741Zm-8.9,7.606a27.336,27.336,0,0,0,.89,6.114,30.363,30.363,0,0,1,5.779-.738V18.96Zm8.9,0v5.373a30.13,30.13,0,0,1,5.779.741,27.462,27.462,0,0,0,.892-6.114ZM11.639,27.2a17.43,17.43,0,0,0,.881,1.945c1.231,2.309,2.717,3.68,4.209,4.138V26.566a28.309,28.309,0,0,0-5.09.64Zm.245,5.077A14.936,14.936,0,0,1,10.551,30.2a19.748,19.748,0,0,1-1.073-2.407,18.692,18.692,0,0,0-2.672,1.093,15.636,15.636,0,0,0,5.077,3.395ZM8.8,25.67a29.8,29.8,0,0,1-.975-6.71H2.271a15.532,15.532,0,0,0,3.038,8.2A20.259,20.259,0,0,1,8.8,25.67Zm15.007,6.611a15.634,15.634,0,0,0,5.075-3.393,18.684,18.684,0,0,0-2.67-1.093,19.748,19.748,0,0,1-1.073,2.4A14.918,14.918,0,0,1,23.807,32.281ZM18.96,26.564v6.723c1.494-.455,2.978-1.829,4.209-4.138A17.034,17.034,0,0,0,24.05,27.2a28.172,28.172,0,0,0-5.09-.638Zm7.93-.894a20.26,20.26,0,0,1,3.491,1.488,15.532,15.532,0,0,0,3.038-8.2H27.865a29.8,29.8,0,0,1-.975,6.71Zm6.529-8.94a15.532,15.532,0,0,0-3.038-8.2A20.26,20.26,0,0,1,26.89,10.02a29.89,29.89,0,0,1,.975,6.71Zm-8.28-11.24a20.166,20.166,0,0,1,1.075,2.4A18.666,18.666,0,0,0,28.882,6.8a15.637,15.637,0,0,0-5.075-3.39A14.981,14.981,0,0,1,25.139,5.489Zm-1.089,3a17.321,17.321,0,0,0-.881-1.945C21.938,4.231,20.455,2.86,18.96,2.4V9.123a28.309,28.309,0,0,0,5.09-.64Z" fill="#0069ff" stroke="#0069ff" stroke-width="1"/>
    </g>
  </g>
</svg>
