<svg id="linkedin" xmlns="http://www.w3.org/2000/svg" width="12.043" height="11.512" viewBox="0 0 12.043 11.512">
  <path id="Path_14126" data-name="Path 14126" d="M2.734,11.512V3.745H.152v7.767ZM1.443,2.684A1.346,1.346,0,1,0,1.46,0a1.346,1.346,0,1,0-.034,2.684h.017Zm2.719,8.828H6.744V7.174a1.77,1.77,0,0,1,.085-.63A1.413,1.413,0,0,1,8.154,5.6c.934,0,1.308.712,1.308,1.756v4.155h2.581V7.058c0-2.386-1.274-3.5-2.972-3.5A2.572,2.572,0,0,0,6.727,4.871h.017V3.745H4.163c.034.729,0,7.767,0,7.767Z" transform="translate(0 0)" fill="#fff"/>
</svg>
