<svg xmlns="http://www.w3.org/2000/svg" width="26.979" height="26.979" viewBox="0 0 26.979 26.979">
  <g id="linkedin-rect" transform="translate(-0.009 -0.012)">
    <path id="Path_14115" data-name="Path 14115" d="M5.3.012A5.3,5.3,0,0,0,.009,5.3V21.705A5.3,5.3,0,0,0,5.3,26.991H21.7a5.3,5.3,0,0,0,5.286-5.286V5.3A5.3,5.3,0,0,0,21.7.012Zm1.33,4.452A2.124,2.124,0,1,1,6.6,8.7H6.573a2.123,2.123,0,1,1,.053-4.235Zm12.013,5.622c2.681,0,4.691,1.752,4.691,5.518v7.03H19.255V16.076c0-1.648-.59-2.772-2.064-2.772a2.231,2.231,0,0,0-2.091,1.49,2.791,2.791,0,0,0-.134.994v6.847H10.891s.053-11.11,0-12.26h4.075V12.11a4.045,4.045,0,0,1,3.672-2.024Zm-14.077.288H8.636V22.634H4.561V10.375Z" fill="#0069ff"/>
  </g>
</svg>
