<svg id="linkedin" xmlns="http://www.w3.org/2000/svg" width="13.946" height="13.331" viewBox="0 0 13.946 13.331">
  <path id="Path_14126" data-name="Path 14126" d="M3.166,13.331V4.337H.176v8.994ZM1.671,3.108A1.559,1.559,0,1,0,1.691,0a1.558,1.558,0,1,0-.039,3.108h.019ZM4.821,13.331H7.81V8.308a2.049,2.049,0,0,1,.1-.73A1.636,1.636,0,0,1,9.442,6.485c1.082,0,1.515.825,1.515,2.034v4.812h2.989V8.174c0-2.763-1.475-4.048-3.442-4.048A2.978,2.978,0,0,0,7.79,5.641h.02v-1.3H4.821c.039.844,0,8.994,0,8.994Z" transform="translate(0 0)" fill="#fff"/>
</svg>
