<svg xmlns="http://www.w3.org/2000/svg" width="48.495" height="44.776" viewBox="0 0 48.495 44.776">
  <g id="md-thumbs-up" transform="translate(-4.5 -6)">
    <path id="Path_14157" data-name="Path 14157" d="M19.431,50.776H39.487a4.278,4.278,0,0,0,3.988-2.729l6.658-15.788a4.463,4.463,0,0,0,.3-1.632v-4.5c0-2.46-1.982-5.2-4.408-5.2h-13.9l2.1-9.5.07-.7a3.38,3.38,0,0,0-.968-2.367L30.975,6,16.283,20.844A4.488,4.488,0,0,0,15,24V46.391a4.4,4.4,0,0,0,4.431,4.384Z" transform="translate(2.56)" fill="#fff"/>
    <path id="Path_14158" data-name="Path 14158" d="M4.5,21h7.463V47.119H4.5Z" transform="translate(0 3.657)" fill="#fff"/>
  </g>
</svg>
