<svg xmlns="http://www.w3.org/2000/svg" width="32.689" height="32.689" viewBox="0 0 32.689 32.689">
  <path id="Path_14120" data-name="Path 14120" d="M18.712,6H7.816A1.816,1.816,0,0,0,6,7.816v10.9a1.816,1.816,0,0,0,1.816,1.816h10.9a1.816,1.816,0,0,0,1.816-1.816V7.816A1.816,1.816,0,0,0,18.712,6ZM16.9,16.9H9.632V9.632H16.9ZM36.873,6h-10.9a1.816,1.816,0,0,0-1.816,1.816v10.9a1.816,1.816,0,0,0,1.816,1.816h10.9a1.816,1.816,0,0,0,1.816-1.816V7.816A1.816,1.816,0,0,0,36.873,6ZM35.057,16.9H27.793V9.632h7.264ZM18.712,24.161H7.816A1.816,1.816,0,0,0,6,25.977v10.9a1.816,1.816,0,0,0,1.816,1.816h10.9a1.816,1.816,0,0,0,1.816-1.816v-10.9A1.816,1.816,0,0,0,18.712,24.161ZM16.9,35.057H9.632V27.793H16.9Zm14.529-10.9a7.264,7.264,0,1,0,7.264,7.264A7.272,7.272,0,0,0,31.425,24.161Zm0,10.9a3.632,3.632,0,1,1,3.632-3.632A3.636,3.636,0,0,1,31.425,35.057Z" transform="translate(-6 -6)" fill="#0069ff"/>
</svg>
