<svg xmlns="http://www.w3.org/2000/svg" width="18.487" height="21.12" viewBox="0 0 18.487 21.12">
  <path id="Path_14113" data-name="Path 14113" d="M117.042,13.964a.52.52,0,0,0,.526.51h.5a.52.52,0,0,0,.526-.51V10.3a.519.519,0,0,0-.526-.51h-.5a.519.519,0,0,0-.526.51v1.334h-5.513v1.989h5.513Zm1.09,6.224-2.389-.214a.154.154,0,0,1-.13-.094l-.942-2.206a.156.156,0,0,0-.287,0l-.942,2.206a.153.153,0,0,1-.13.094l-2.389.214a.156.156,0,0,0-.089.273l1.807,1.578a.153.153,0,0,1,.049.153l-.535,2.338a.157.157,0,0,0,.233.169l2.059-1.231a.153.153,0,0,1,.16,0l2.059,1.231a.156.156,0,0,0,.232-.169l-.534-2.338a.153.153,0,0,1,.049-.153l1.807-1.578a.156.156,0,0,0-.089-.273Zm5.725.145V14.79a2.887,2.887,0,0,0-2.874-2.874H119.9V13.9h1.084a.884.884,0,0,1,.885.885v7.978a.372.372,0,0,0,.015.069v5.2a.884.884,0,0,1-.885.885H108.259a.884.884,0,0,1-.885-.885V14.789a.884.884,0,0,1,.885-.885h1.166v.342a.52.52,0,0,0,.526.51h.5a.519.519,0,0,0,.526-.51V10.582a.52.52,0,0,0-.526-.51h-.5a.52.52,0,0,0-.526.51v1.333h-1.166a2.887,2.887,0,0,0-2.874,2.874V28.035a2.887,2.887,0,0,0,2.874,2.874H121a2.887,2.887,0,0,0,2.874-2.874v-7.7h-.015Z" transform="translate(-105.385 -9.79)" fill="#fff"/>
</svg>
