<svg id="twitter" xmlns="http://www.w3.org/2000/svg" width="12.349" height="10.034" viewBox="0 0 12.349 10.034">
  <g id="Group_16614" data-name="Group 16614" transform="translate(0 0)">
    <path id="Path_14123" data-name="Path 14123" d="M3.879,16.032a7.16,7.16,0,0,0,7.21-7.2c0-.108,0-.218,0-.326a5.16,5.16,0,0,0,1.265-1.314,5.139,5.139,0,0,1-1.458.4,2.548,2.548,0,0,0,1.117-1.4A5.042,5.042,0,0,1,10.4,6.8,2.536,2.536,0,0,0,6.078,9.109,7.2,7.2,0,0,1,.855,6.462a2.539,2.539,0,0,0,.786,3.382A2.565,2.565,0,0,1,.494,9.529v.035a2.538,2.538,0,0,0,2.031,2.484,2.472,2.472,0,0,1-.668.089,2.493,2.493,0,0,1-.474-.044A2.534,2.534,0,0,0,3.751,13.85,5.085,5.085,0,0,1,.6,14.936,4.877,4.877,0,0,1,0,14.9a7.212,7.212,0,0,0,3.879,1.131Z" transform="translate(0 -5.998)" fill="#0069ff"/>
  </g>
</svg>
