<svg id="twitter" xmlns="http://www.w3.org/2000/svg" width="14.3" height="11.62" viewBox="0 0 14.3 11.62">
  <g id="Group_16614" data-name="Group 16614" transform="translate(0 0)">
    <path id="Path_14123" data-name="Path 14123" d="M4.492,17.617a8.291,8.291,0,0,0,8.349-8.342c0-.125,0-.252-.005-.377A5.975,5.975,0,0,0,14.3,7.376a5.951,5.951,0,0,1-1.688.463,2.95,2.95,0,0,0,1.293-1.624,5.839,5.839,0,0,1-1.865.709,2.937,2.937,0,0,0-5,2.676A8.334,8.334,0,0,1,.99,6.535a2.94,2.94,0,0,0,.91,3.916,2.97,2.97,0,0,1-1.328-.365v.04A2.939,2.939,0,0,0,2.924,13a2.863,2.863,0,0,1-.773.1,2.887,2.887,0,0,1-.549-.051,2.934,2.934,0,0,0,2.741,2.035A5.888,5.888,0,0,1,.7,16.348a5.648,5.648,0,0,1-.7-.04,8.351,8.351,0,0,0,4.492,1.309Z" transform="translate(0 -5.998)" fill="#0069ff"/>
  </g>
</svg>
