<svg xmlns="http://www.w3.org/2000/svg" xmlns:xlink="http://www.w3.org/1999/xlink" width="70.002" height="65.804" viewBox="0 0 70.002 65.804">
  <defs>
    <linearGradient id="linear-gradient" x1="-0.87" y1="0.401" x2="1.696" y2="0.401" gradientUnits="objectBoundingBox">
      <stop offset="0" stop-color="#0069ff"/>
      <stop offset="1" stop-color="#7c3aed"/>
    </linearGradient>
  </defs>
  <path id="Union_5" data-name="Union 5" d="M9577.311-7467.639a9.715,9.715,0,0,1,.535-13.157l5.692-5.692a.01.01,0,0,1,0,0l5.974-5.974a.014.014,0,0,0,0,.006l10.118-10.118-2.29-2.29a1.13,1.13,0,0,1,.8-1.929h10.889a1.13,1.13,0,0,1,1.13,1.13v10.889a1.131,1.131,0,0,1-1.931.8l-2.29-2.287-12.092,12.093a15.624,15.624,0,0,0,11.087,4.593,15.68,15.68,0,0,0,15.65-16.662,15.761,15.761,0,0,0-15.076-14.689,15.667,15.667,0,0,0-13.5,6.792,3.658,3.658,0,0,1-3.025,1.559,3.717,3.717,0,0,1-3.107-5.78,23.1,23.1,0,0,1,19.055-10.02c.528,0,1.061.017,1.6.053A23.2,23.2,0,0,1,9628-7496.9a23.12,23.12,0,0,1-23.063,24.762,23.049,23.049,0,0,1-16.348-6.771l-5.43,5.431a30.8,30.8,0,0,0,43.556,0,30.806,30.806,0,0,0,2.472-40.775,4.164,4.164,0,0,1,.278-5.533,4.12,4.12,0,0,1,2.873-1.21h.1a4.12,4.12,0,0,1,3.2,1.573,38.957,38.957,0,0,1,8.367,24.039v.251a38.947,38.947,0,0,1-11.443,27.5,38.94,38.94,0,0,1-27.624,11.443A38.939,38.939,0,0,1,9577.311-7467.639Z" transform="translate(-9574.499 7521.5)" stroke="rgba(0,0,0,0)" stroke-width="1" fill="url(#linear-gradient)"/>
</svg>
