<svg xmlns="http://www.w3.org/2000/svg" width="28" height="34.75" viewBox="0 0 28 34.75">
  <g id="user_outline" transform="translate(-4.3 0.5)">
    <path id="Path_14163" data-name="Path 14163" d="M23.148,31.331h-9.7a6.121,6.121,0,0,0-6.121,6.121A1.453,1.453,0,0,0,8.493,38.96a60.887,60.887,0,0,0,9.807.809,60.887,60.887,0,0,0,9.807-.809,1.453,1.453,0,0,0,1.162-1.508A6.121,6.121,0,0,0,23.148,31.331Zm-9.7-2.531A8.652,8.652,0,0,0,4.8,37.452a3.981,3.981,0,0,0,3.279,4A63.419,63.419,0,0,0,18.3,42.3a63.42,63.42,0,0,0,10.221-.843,3.981,3.981,0,0,0,3.279-4A8.652,8.652,0,0,0,23.148,28.8Z" transform="translate(0 -8.55)" fill="#0069ff" stroke="#0069ff" stroke-width="1" fill-rule="evenodd"/>
    <path id="Path_14164" data-name="Path 14164" d="M14.531,8.438a5.906,5.906,0,1,0,5.906-5.906A5.906,5.906,0,0,0,14.531,8.438ZM20.438,0a8.438,8.438,0,1,0,8.438,8.438A8.438,8.438,0,0,0,20.438,0Z" transform="translate(-2.137)" fill="#0069ff" stroke="#0069ff" stroke-width="1" fill-rule="evenodd"/>
  </g>
</svg>
